<svg width="22" height="16" viewBox="0 0 22 16" fill="none" xmlns="http://www.w3.org/2000/svg">
<path d="M3.34613 16H18.8434C19.695 16 20.3506 15.7667 20.8104 15.3001C21.2701 14.8335 21.5 14.1446 21.5 13.2334V2.76009C21.5 1.85314 21.2613 1.16638 20.7839 0.699829C20.3066 0.233276 19.5965 0 18.6539 0H3.1566C2.30706 0 1.65191 0.232289 1.19115 0.696868C0.730382 1.16145 0.5 1.84919 0.5 2.76009V13.2334C0.5 14.1486 0.738713 14.8386 1.21614 15.3031C1.69357 15.7677 2.40356 16 3.34613 16ZM3.31865 14.8817C2.77246 14.8817 2.35576 14.7426 2.06857 14.4643C1.78138 14.186 1.63779 13.7727 1.63779 13.2244V2.76897C1.63779 2.22505 1.78138 1.81394 2.06857 1.53561C2.35576 1.25729 2.77246 1.11813 3.31865 1.11813H18.6845C19.2181 1.11813 19.6311 1.25729 19.9236 1.53561C20.216 1.81394 20.3622 2.22723 20.3622 2.77548V13.2309C20.3622 13.7749 20.216 14.186 19.9236 14.4643C19.6311 14.7426 19.2181 14.8817 18.6845 14.8817H3.31865ZM11.0376 10.3515C11.3426 10.3515 11.6492 10.2858 11.9575 10.1545C12.2659 10.0231 12.5786 9.80619 12.8958 9.50364L20.8414 1.8785L20.0555 1.10155L12.2224 8.65446C12.0117 8.85655 11.8073 9.00248 11.6091 9.09222C11.411 9.18197 11.2204 9.22685 11.0376 9.22685C10.8525 9.22685 10.6598 9.18039 10.4595 9.08749C10.2592 8.99458 10.058 8.85024 9.85587 8.65446L1.99631 1.07861L1.20376 1.8554L9.18247 9.50364C9.49518 9.80619 9.80681 10.0231 10.1174 10.1545C10.4279 10.2858 10.7347 10.3515 11.0376 10.3515ZM19.9496 14.8842L20.7265 14.1015L14.266 7.92873L13.4801 8.69013L19.9496 14.8842ZM1.32382 14.1289L2.09463 14.9177L8.59817 8.69013L7.80561 7.92873L1.32382 14.1289Z" fill="#003DA6"/>
</svg>
