<svg width="20" height="20" viewBox="0 0 20 20" fill="none" xmlns="http://www.w3.org/2000/svg">
<path fill-rule="evenodd" clip-rule="evenodd" d="M10.9804 0.0360577C8.96732 -0.120192 7.13726 0.23137 5.4902 1.09075C3.86928 1.95012 2.56209 3.17408 1.56863 4.76262C0.601307 6.32512 0.0784314 8.06991 0 9.99699V10.622C0.0261438 11.0126 0.235294 11.221 0.627451 11.247C1.01961 11.221 1.22876 11.0126 1.2549 10.622V9.99699C1.33333 8.30429 1.79085 6.78085 2.62745 5.42668C3.4902 4.04647 4.62745 2.97877 6.03922 2.22356C7.47712 1.46835 9.08497 1.15585 10.8627 1.28606C13.1895 1.54647 15.085 2.52304 16.549 4.21574C18.0131 5.88241 18.7712 7.88762 18.8235 10.2314V16.8329C18.7974 17.3798 18.6144 17.8225 18.2745 18.1611C17.9085 18.5256 17.4641 18.7079 16.9412 18.7079H13.6863C13.8693 18.2913 13.8431 17.8095 13.6078 17.2626C13.1895 16.5855 12.5621 16.234 11.7255 16.2079L9.4902 16.247C9.01961 16.247 8.60131 16.3902 8.23529 16.6767C7.89542 16.9371 7.6732 17.2887 7.56863 17.7314C7.46405 18.3564 7.59477 18.8902 7.96078 19.3329C8.3268 19.7496 8.79739 19.971 9.37255 19.997H16.8627C17.7516 19.971 18.4967 19.6715 19.098 19.0986C19.6732 18.4996 19.9739 17.7704 20 16.9111V10.2704C20 8.4996 19.6209 6.88502 18.8627 5.42668C18.0784 3.94231 17.0065 2.71835 15.6471 1.75481C14.2876 0.791266 12.732 0.218349 10.9804 0.0360577ZM7.13542 7.84863C7.37071 8.08301 7.48836 8.38249 7.48836 8.74707L7.52757 13.7471C7.52757 14.0856 7.40993 14.3721 7.17463 14.6064C6.93934 14.8408 6.63868 14.971 6.27267 14.9971H5.01777C4.31189 14.971 3.72365 14.7236 3.25306 14.2549C2.78248 13.7861 2.53411 13.2002 2.50797 12.4971L2.46875 9.95801C2.49489 9.25488 2.74326 8.68197 3.21385 8.23926C3.68444 7.77051 4.27267 7.52311 4.97855 7.49707H6.23346C6.59947 7.49707 6.90012 7.61426 7.13542 7.84863ZM4.98146 13.7471H6.23637V8.74707H4.98146C4.6416 8.74707 4.34094 8.86426 4.0795 9.09863C3.84421 9.33301 3.72656 9.63249 3.72656 9.99707V12.4971C3.72656 12.8356 3.84421 13.1221 4.0795 13.3564C4.34094 13.5908 4.6416 13.721 4.98146 13.7471ZM15.0214 14.9971C15.7273 14.971 16.3155 14.7236 16.7861 14.2549C17.2567 13.7861 17.505 13.2002 17.5312 12.4971V9.99707C17.505 9.29395 17.2567 8.70801 16.7861 8.23926C16.3155 7.77051 15.7273 7.53613 15.0214 7.53613H13.8057C13.4397 7.53613 13.139 7.65332 12.9037 7.8877C12.6684 8.12207 12.5508 8.42155 12.5508 8.78613V13.7861C12.5508 14.1247 12.6684 14.4111 12.9037 14.6455C13.139 14.8799 13.4397 15.0101 13.8057 15.0361H15.0214V14.9971ZM14.9815 8.74707H13.7658L13.7266 13.7471H14.9815C15.3475 13.721 15.6481 13.5908 15.8834 13.3564C16.1187 13.1221 16.2364 12.8356 16.2364 12.4971V9.99707C16.2364 9.63249 16.1187 9.33301 15.8834 9.09863C15.6481 8.86426 15.3475 8.74707 14.9815 8.74707ZM9.37354 18.7471H11.8833C12.2755 18.721 12.4847 18.5127 12.5108 18.1221C12.4847 17.7314 12.2755 17.5231 11.8833 17.4971H9.37354C8.98139 17.5231 8.77224 17.7314 8.74609 18.1221C8.77224 18.5127 8.98139 18.721 9.37354 18.7471Z" fill="#FFAE75"/>
</svg>
