<svg width="122" height="120" viewBox="0 0 122 120" fill="none" xmlns="http://www.w3.org/2000/svg">
<path d="M121.085 61.2043C121.085 94.9209 94.0132 122.251 60.6214 122.251C27.2296 122.251 0.157682 94.9209 0.157682 61.2043C0.157682 27.4878 27.2296 0.157682 60.6214 0.157682C94.0132 0.157682 121.085 27.4878 121.085 61.2043Z" fill="white" stroke="white" stroke-width="0.315363"/>
<circle cx="60.5" cy="61.5" r="49.5" fill="#E6E6E6"/>
<mask id="mask0_124555_48154" style="mask-type:alpha" maskUnits="userSpaceOnUse" x="16" y="17" width="89" height="89">
<path fill-rule="evenodd" clip-rule="evenodd" d="M55.2815 18.2259C49.6318 18.9705 44.1624 20.8503 39.0251 23.8095C33.832 26.8049 29.4341 30.6722 25.9535 35.3035C22.4625 39.9543 19.9301 45.0722 18.4292 50.5091C16.9321 55.9383 16.5118 61.6127 17.1773 67.3727C17.8415 73.121 19.6655 78.6968 22.5974 83.9444C23.8493 86.0473 25.48 87.8025 27.4078 89.0972C29.3939 90.4309 31.563 91.3623 33.8553 91.8657C36.1775 92.3768 38.5866 92.4689 41.0203 92.1433C43.4034 91.8242 45.6893 91.0211 47.8194 89.7563L49.0155 89.0466C49.2932 88.8806 49.5228 88.7158 49.7018 88.555L49.8303 88.4434C51.9085 86.7855 53.5379 84.833 54.6796 82.638L55.6123 80.8425L57.605 81.1811C62.139 81.9556 66.3786 81.2045 70.5701 78.8875C70.8763 78.7046 71.237 78.4698 71.5678 78.2311C72.005 77.921 72.3993 77.6577 72.7768 77.4293C74.6527 75.9621 76.1991 74.2315 77.3732 72.2843C78.5874 70.2722 79.4398 68.1122 79.9029 65.8639C80.366 63.6287 80.4231 61.3208 80.0728 59.0038C79.7239 56.6882 78.9494 54.4347 77.7663 52.3033C76.4041 50.011 74.6527 48.017 72.6056 46.4473C70.5676 44.8827 68.3336 43.771 65.9686 43.1444C63.579 42.5087 61.0545 42.3349 58.4715 42.6203C55.934 42.9031 53.4705 43.7476 51.147 45.1279L49.9509 45.8389C49.6525 46.014 49.3606 46.2242 49.0791 46.459L48.9961 46.5264C47.1241 47.9846 45.5505 49.7204 44.3245 51.6884C43.1025 53.6538 42.2463 55.7865 41.7818 58.0205C41.3213 60.2635 41.2564 62.6077 41.5937 64.9909C41.9284 67.3234 42.7172 69.5547 43.9431 71.6162L44.1416 71.9807C45.4091 74.7349 44.6242 77.3762 42.0932 78.881C40.7673 79.6659 39.3247 79.8592 37.9133 79.4376C36.5913 79.0354 35.5042 78.1688 34.7647 76.9247C32.7384 73.3299 31.4968 69.5418 31.0441 65.611C30.5939 61.6892 30.8936 57.8298 31.934 54.1403C32.9667 50.4741 34.6791 47.0168 37.0233 43.8631C39.3961 40.6691 42.4032 38.033 45.9591 36.0274C53.1137 31.9915 60.7405 30.9978 68.6307 33.0735C72.4953 34.1269 76.0266 35.8626 79.1518 38.238C82.3016 40.6315 84.8884 43.6075 86.8473 47.0817C88.8322 50.6025 90.0984 54.3349 90.603 58.1723C91.1154 62.0382 90.8002 65.9781 89.6715 69.8804C88.6402 73.6711 86.7695 77.0765 84.5849 80.2964C79.6798 87.5275 77.6326 91.7281 60.6458 105.764C60.6458 105.764 65.4575 105.518 67.5332 105.16C70.4184 104.662 72.9688 104.069 75.1146 103.395C77.237 102.731 78.9611 102.077 80.2415 101.45C81.9902 100.593 82.5974 100.259 82.8024 100.137C84.4357 99.1669 86.03 98.0797 87.5388 96.9083C95.4069 90.9446 100.701 83.1024 103.297 73.5777C104.866 67.8696 105.283 62.1147 104.537 56.4676C103.79 50.7997 101.943 45.2966 99.0445 40.1126C96.1658 34.9571 92.3907 30.5904 87.8216 27.1357C83.224 23.6551 78.0205 21.0709 72.3591 19.457C68.5113 18.3984 64.6246 17.8652 60.7587 17.8652C58.9269 17.8652 57.0977 17.9846 55.2815 18.2259ZM58.9396 68.8823C56.982 68.3842 55.4746 67.2088 54.5755 65.4782C53.7141 63.9837 53.4313 62.3076 53.7582 60.6237C54.0942 58.923 54.9504 57.496 56.3087 56.3764L56.6564 56.1338L57.1987 55.8095C58.8397 54.8326 60.7208 54.5757 62.6421 55.0635C64.5582 55.5526 66.089 56.6787 67.062 58.3197L67.1567 58.491C67.9805 60.1282 68.2088 61.7991 67.8365 63.457C67.4979 64.9801 66.7182 66.2916 65.5208 67.3554C65.2276 67.6966 64.8683 67.9963 64.4454 68.2467L64.2728 68.3414C63.2233 68.8694 62.0869 69.1353 60.9232 69.1353C60.2681 69.1353 59.6039 69.051 58.9396 68.8823Z" fill="white"/>
</mask>
<g mask="url(#mask0_124555_48154)">
<path fill-rule="evenodd" clip-rule="evenodd" d="M55.2815 18.2259C49.6318 18.9705 44.1624 20.8503 39.0251 23.8095C33.832 26.8049 29.4341 30.6722 25.9535 35.3035C22.4625 39.9543 19.9301 45.0722 18.4292 50.5091C16.9321 55.9383 16.5118 61.6127 17.1773 67.3727C17.8415 73.121 19.6655 78.6968 22.5974 83.9444C23.8493 86.0473 25.48 87.8025 27.4078 89.0972C29.3939 90.4309 31.563 91.3623 33.8553 91.8657C36.1775 92.3768 38.5866 92.4689 41.0203 92.1433C43.4034 91.8242 45.6893 91.0211 47.8194 89.7563L49.0155 89.0466C49.2932 88.8806 49.5228 88.7158 49.7018 88.555L49.8303 88.4434C51.9085 86.7855 53.5379 84.833 54.6796 82.638L55.6123 80.8425L57.605 81.1811C62.139 81.9556 66.3786 81.2045 70.5701 78.8875C70.8763 78.7046 71.237 78.4698 71.5678 78.2311C72.005 77.921 72.3993 77.6577 72.7768 77.4293C74.6527 75.9621 76.1991 74.2315 77.3732 72.2843C78.5874 70.2722 79.4398 68.1122 79.9029 65.8639C80.366 63.6287 80.4231 61.3208 80.0728 59.0038C79.7239 56.6882 78.9494 54.4347 77.7663 52.3033C76.4041 50.011 74.6527 48.017 72.6056 46.4473C70.5676 44.8827 68.3336 43.771 65.9686 43.1444C63.579 42.5087 61.0545 42.3349 58.4715 42.6203C55.934 42.9031 53.4705 43.7476 51.147 45.1279L49.9509 45.8389C49.6525 46.014 49.3606 46.2242 49.0791 46.459L48.9961 46.5264C47.1241 47.9846 45.5505 49.7204 44.3245 51.6884C43.1025 53.6538 42.2463 55.7865 41.7818 58.0205C41.3213 60.2635 41.2564 62.6077 41.5937 64.9909C41.9284 67.3234 42.7172 69.5547 43.9431 71.6162L44.1416 71.9807C45.4091 74.7349 44.6242 77.3762 42.0932 78.881C40.7673 79.6659 39.3247 79.8592 37.9133 79.4376C36.5913 79.0354 35.5042 78.1688 34.7647 76.9247C32.7384 73.3299 31.4968 69.5418 31.0441 65.611C30.5939 61.6892 30.8936 57.8298 31.934 54.1403C32.9667 50.4741 34.6791 47.0168 37.0233 43.8631C39.3961 40.6691 42.4032 38.033 45.9591 36.0274C53.1137 31.9915 60.7405 30.9978 68.6307 33.0735C72.4953 34.1269 76.0266 35.8626 79.1518 38.238C82.3016 40.6315 84.8884 43.6075 86.8473 47.0817C88.8322 50.6025 90.0984 54.3349 90.603 58.1723C91.1154 62.0382 90.8002 65.9781 89.6715 69.8804C88.6402 73.6711 86.7695 77.0765 84.5849 80.2964C79.6798 87.5275 77.6326 91.7281 60.6458 105.764C60.6458 105.764 65.4575 105.518 67.5332 105.16C70.4184 104.662 72.9688 104.069 75.1146 103.395C77.237 102.731 78.9611 102.077 80.2415 101.45C81.9902 100.593 82.5974 100.259 82.8024 100.137C84.4357 99.1669 86.03 98.0797 87.5388 96.9083C95.4069 90.9446 100.701 83.1024 103.297 73.5777C104.866 67.8696 105.283 62.1147 104.537 56.4676C103.79 50.7997 101.943 45.2966 99.0445 40.1126C96.1658 34.9571 92.3907 30.5904 87.8216 27.1357C83.224 23.6551 78.0205 21.0709 72.3591 19.457C68.5113 18.3984 64.6246 17.8652 60.7587 17.8652C58.9269 17.8652 57.0977 17.9846 55.2815 18.2259ZM58.9396 68.8823C56.982 68.3842 55.4746 67.2088 54.5755 65.4782C53.7141 63.9837 53.4313 62.3076 53.7582 60.6237C54.0942 58.923 54.9504 57.496 56.3087 56.3764L56.6564 56.1338L57.1987 55.8095C58.8397 54.8326 60.7208 54.5757 62.6421 55.0635C64.5582 55.5526 66.089 56.6787 67.062 58.3197L67.1567 58.491C67.9805 60.1282 68.2088 61.7991 67.8365 63.457C67.4979 64.9801 66.7182 66.2916 65.5208 67.3554C65.2276 67.6966 64.8683 67.9963 64.4454 68.2467L64.2728 68.3414C63.2233 68.8694 62.0869 69.1353 60.9232 69.1353C60.2681 69.1353 59.6039 69.051 58.9396 68.8823Z" fill="url(#paint0_linear_124555_48154)"/>
</g>
<defs>
<linearGradient id="paint0_linear_124555_48154" x1="16.8699" y1="325.767" x2="104.896" y2="325.767" gradientUnits="userSpaceOnUse">
<stop stop-color="#003899"/>
<stop offset="1" stop-color="#00A98F"/>
</linearGradient>
</defs>
</svg>
