<svg width="21" height="22" viewBox="0 0 21 22" fill="none" xmlns="http://www.w3.org/2000/svg">
<path d="M17.25 14C16.0312 14.0312 15.0469 14.5156 14.2969 15.4531L7.3125 11.9844C7.4375 11.6406 7.5 11.3125 7.5 11C7.5 10.6562 7.4375 10.3281 7.3125 10.0156L14.2969 6.54688C15.0469 7.48438 16.0312 7.96875 17.25 8C18.3125 7.96875 19.2031 7.60938 19.9219 6.92188C20.6094 6.20313 20.9688 5.3125 21 4.25C20.9688 3.1875 20.6094 2.29687 19.9219 1.57812C19.2031 0.890625 18.3125 0.53125 17.25 0.5C16.1875 0.53125 15.2969 0.890625 14.5781 1.57812C13.8906 2.29687 13.5312 3.1875 13.5 4.25C13.5 4.59375 13.5469 4.92187 13.6406 5.23438L6.70312 8.70312C5.95312 7.76562 4.96875 7.28125 3.75 7.25C2.6875 7.28125 1.79688 7.64062 1.07812 8.32812C0.390625 9.04688 0.03125 9.9375 0 11C0.03125 12.0625 0.390625 12.9531 1.07812 13.6719C1.79688 14.3594 2.6875 14.7188 3.75 14.75C4.96875 14.7188 5.95312 14.2344 6.70312 13.2969L13.6406 16.7656C13.5469 17.0781 13.5 17.4062 13.5 17.75C13.5312 18.8125 13.8906 19.7031 14.5781 20.4219C15.2969 21.1094 16.1875 21.4688 17.25 21.5C18.3125 21.4688 19.2031 21.1094 19.9219 20.4219C20.6094 19.7031 20.9688 18.8125 21 17.75C20.9688 16.6875 20.6094 15.7969 19.9219 15.0781C19.2031 14.3906 18.3125 14.0312 17.25 14ZM17.25 2C17.875 2.03125 18.4062 2.25 18.8438 2.65625C19.25 3.09375 19.4688 3.625 19.5 4.25C19.4688 4.875 19.25 5.40625 18.8438 5.84375C18.4062 6.25 17.875 6.46875 17.25 6.5C16.625 6.46875 16.0938 6.25 15.6562 5.84375C15.25 5.40625 15.0312 4.875 15 4.25C15.0312 3.625 15.25 3.09375 15.6562 2.65625C16.0938 2.25 16.625 2.03125 17.25 2ZM3.75 13.25C3.125 13.2188 2.59375 13 2.15625 12.5938C1.75 12.1562 1.53125 11.625 1.5 11C1.53125 10.375 1.75 9.84375 2.15625 9.40625C2.59375 9 3.125 8.78125 3.75 8.75C4.375 8.78125 4.90625 9 5.34375 9.40625C5.75 9.84375 5.96875 10.375 6 11C5.96875 11.625 5.75 12.1562 5.34375 12.5938C4.90625 13 4.375 13.2188 3.75 13.25ZM17.25 20C16.625 19.9688 16.0938 19.75 15.6562 19.3438C15.25 18.9062 15.0312 18.375 15 17.75C15.0312 17.125 15.25 16.5938 15.6562 16.1562C16.0938 15.75 16.625 15.5312 17.25 15.5C17.875 15.5312 18.4062 15.75 18.8438 16.1562C19.25 16.5938 19.4688 17.125 19.5 17.75C19.4688 18.375 19.25 18.9062 18.8438 19.3438C18.4062 19.75 17.875 19.9688 17.25 20Z" fill="#333E48"/>
</svg>
