<svg width="27" height="25" viewBox="0 0 27 25" fill="none" xmlns="http://www.w3.org/2000/svg">
<path d="M14.8594 0.84375L17.9062 7.03125L24.7969 8.01562C25.4219 8.17188 25.8125 8.51562 25.9688 9.04688C26.1562 9.60938 26.0312 10.125 25.5938 10.5938L20.625 15.375L21.7969 22.2188C21.8906 22.8438 21.7031 23.3281 21.2344 23.6719C20.7656 24.0156 20.2344 24.0469 19.6406 23.7656L13.5 20.625L7.35938 23.8125C6.76562 24.0938 6.23438 24.0625 5.76562 23.7188C5.29688 23.375 5.10938 22.8906 5.20312 22.2656L6.375 15.4219L1.40625 10.5938C0.96875 10.125 0.84375 9.60938 1.03125 9.04688C1.1875 8.51562 1.57812 8.1875 2.20312 8.0625L9.09375 7.03125L12.1406 0.84375C12.4844 0.28125 12.9375 0 13.5 0C14.0938 0 14.5469 0.28125 14.8594 0.84375Z" fill="#E3D44F"/>
</svg>
