<svg width="104" height="78" viewBox="0 0 104 78" fill="none" xmlns="http://www.w3.org/2000/svg">
<path fill-rule="evenodd" clip-rule="evenodd" d="M17.8796 68.2587C17.6612 68.0459 17.3967 67.9432 17.091 67.9385L1.11383 67.9505C0.8008 67.9457 0.538719 68.0579 0.325173 68.2706C0.106773 68.4833 0 68.7438 0 69.0495C0.00485392 69.353 0.114053 69.6159 0.330027 69.8215C0.545999 70.0413 0.803221 70.144 1.12112 70.144L8.73841 70.1631C8.48846 70.5957 8.30403 71.0472 8.18513 71.5275C8.05895 72.0055 7.99827 72.4834 7.99827 72.9542L8.0177 76.9112C8.02012 77.2123 8.12446 77.4679 8.34286 77.683C8.56126 77.9005 8.81848 77.9985 9.13881 77.9985C9.44214 77.9985 9.70665 77.8933 9.92504 77.6782C10.1386 77.4656 10.2454 77.2003 10.2454 76.8969L10.2357 72.947C10.2381 72.6913 10.2551 72.3998 10.323 72.0819C10.3813 71.7593 10.4953 71.4654 10.6676 71.1834C10.835 70.9087 11.068 70.6769 11.3738 70.4881C11.6722 70.2897 12.0605 70.1823 12.5216 70.1512L17.1856 70.1417C17.4646 70.1057 17.7097 69.9887 17.9111 69.7809C18.1053 69.5753 18.2096 69.322 18.2096 69.0377C18.2073 68.7342 18.1005 68.469 17.8796 68.2587Z" fill="#4D4748"/>
<path fill-rule="evenodd" clip-rule="evenodd" d="M65.1274 71.2157C64.9382 70.6326 64.6664 70.1117 64.3242 69.6362C63.9724 69.1655 63.5549 68.7736 63.0575 68.4653C62.5624 68.1476 61.9971 67.9802 61.3564 67.9443H50.7738C50.1089 67.9468 49.5095 68.0973 48.9804 68.4008C48.4563 68.7067 48.0074 69.1009 47.6361 69.5789C47.2672 70.0615 46.9857 70.592 46.7868 71.1822C46.5951 71.7676 46.4955 72.3531 46.5002 72.9314C46.4955 73.4929 46.5903 74.064 46.777 74.6447C46.9639 75.2229 47.2308 75.7462 47.5779 76.2217C47.9297 76.6949 48.3471 77.0891 48.8397 77.4021C49.3323 77.7153 49.9001 77.8849 50.5407 77.9159H53.2539C53.5669 77.9159 53.8314 77.7845 54.0547 77.5742C54.2609 77.3592 54.37 77.0987 54.3725 76.7952C54.37 76.4919 54.2609 76.2313 54.0498 76.0282C53.8289 75.8226 53.5644 75.7224 53.2539 75.7224H51.2542C50.7179 75.7224 50.2762 75.622 49.9462 75.4357C49.6115 75.2397 49.3517 75.0103 49.1576 74.7354C48.961 74.4607 48.8349 74.1596 48.762 73.8322C48.6941 73.5049 48.6577 73.2062 48.6577 72.9314C48.6602 72.6542 48.6941 72.3578 48.762 72.0281C48.8349 71.7008 48.9635 71.3973 49.1576 71.1224C49.3517 70.8501 49.6115 70.6183 49.9462 70.4247C50.2762 70.236 50.7179 70.1428 51.2616 70.1428H60.6382C61.1671 70.1428 61.5991 70.236 61.9461 70.4295C62.2834 70.6158 62.5528 70.8501 62.742 71.1224C62.9337 71.3973 63.0672 71.7008 63.1401 72.0281C63.2055 72.3578 63.2444 72.659 63.2444 72.9314C63.2419 73.2062 63.2055 73.5049 63.1401 73.8322C63.0672 74.162 62.9385 74.4607 62.742 74.7379C62.5528 75.015 62.2834 75.2444 61.9485 75.4357C61.5991 75.6243 61.1671 75.7224 60.6382 75.7224H58.8982L58.4251 75.4427L58.2235 74.8788V74.0067C58.2235 73.6984 58.1144 73.4451 57.8936 73.23C57.6607 73.0151 57.4034 72.9075 57.1097 72.9099C56.8015 72.9075 56.5371 73.0151 56.3211 73.2252C56.1051 73.4451 55.9959 73.6984 55.9959 74.0067V75.125C55.9959 75.5073 56.0663 75.8705 56.207 76.2098C56.3405 76.554 56.5419 76.855 56.7992 77.1011C57.0515 77.3592 57.3475 77.5551 57.6824 77.6985C58.0125 77.8395 58.3789 77.9159 58.789 77.9136L61.1283 77.9159C61.7932 77.9159 62.3926 77.763 62.9192 77.4547C63.441 77.1537 63.8923 76.7618 64.2659 76.2815C64.6348 75.7988 64.9163 75.2635 65.1129 74.6781C65.2998 74.0903 65.4017 73.5144 65.4066 72.9314C65.4066 72.3674 65.3118 71.7916 65.1274 71.2157Z" fill="#4D4748"/>
<path fill-rule="evenodd" clip-rule="evenodd" d="M83.1612 76.5229L82.9331 76.1789L77.4611 69.0079C77.2086 68.6686 76.8787 68.4034 76.4734 68.2146C76.0681 68.0234 75.6459 67.9277 75.1969 67.9277C74.7189 67.9277 74.2652 68.0377 73.855 68.2527C73.4329 68.4703 73.098 68.745 72.8407 69.0843L67.4122 76.2983C67.269 76.4656 67.1914 76.6759 67.1914 76.9388C67.1914 77.2327 67.303 77.4859 67.5118 77.689C67.7204 77.897 67.9728 77.9973 68.2762 77.9997C68.6012 77.9973 68.8804 77.866 69.106 77.5935L74.3524 70.7164L74.7189 70.327L75.2018 70.1142L75.6798 70.327L76.0803 70.7069L81.3267 77.5768C81.5403 77.8587 81.8168 77.9973 82.1784 77.9973C82.4818 77.9925 82.7366 77.8923 82.9405 77.6843C83.154 77.4764 83.2535 77.2255 83.2535 76.9315L83.1612 76.5229Z" fill="#4D4748"/>
<path fill-rule="evenodd" clip-rule="evenodd" d="M103.974 69.0436C103.977 68.7424 103.87 68.482 103.652 68.2646C103.436 68.047 103.176 67.9491 102.858 67.9443L102.421 68.0255L102.411 68.0352L102.242 68.1211L102.062 68.2669C101.846 68.482 101.73 68.7448 101.732 69.0506V71.0508L101.722 71.8751L94.8258 71.8799L88.0068 71.8751V69.0506C88.0117 68.7448 87.8952 68.482 87.6768 68.2669C87.4585 68.0543 87.1939 67.9491 86.8907 67.9491C86.5751 67.9491 86.3155 68.0543 86.0971 68.2646C85.8787 68.4797 85.7695 68.7401 85.7695 69.0436V76.8979C85.7695 77.2038 85.8787 77.4619 86.0898 77.6746C86.3033 77.8896 86.5655 77.9923 86.8737 77.9996C87.189 77.9996 87.4512 77.892 87.6671 77.6818C87.8855 77.4667 88.0045 77.2063 88.0068 76.9028L88.0045 74.0759H94.8695H101.722L101.717 76.8621L101.817 77.3161L101.848 77.3759L101.912 77.4833L102.074 77.6818C102.288 77.892 102.552 77.9996 102.863 77.9996C103.171 77.9923 103.436 77.8896 103.647 77.6746C103.865 77.4619 103.972 77.2038 103.974 76.8979V69.4425V69.0436Z" fill="#4D4748"/>
<path fill-rule="evenodd" clip-rule="evenodd" d="M43.4943 68.2669C43.2758 68.0566 43.0114 67.9443 42.7057 67.9443C42.3926 67.9443 42.128 68.0566 41.9146 68.2598C41.6962 68.4772 41.582 68.7376 41.582 69.0436V76.8979C41.582 77.199 41.6913 77.4642 41.9072 77.6746C42.1208 77.8849 42.3828 77.9923 42.691 77.9971C43.0017 77.9996 43.2662 77.892 43.4797 77.6818C43.7005 77.4667 43.8243 77.2038 43.8243 76.9003V69.0506C43.8292 68.7448 43.7078 68.482 43.4943 68.2669Z" fill="#4D4748"/>
<path fill-rule="evenodd" clip-rule="evenodd" d="M38.7502 69.0436C38.7502 68.7424 38.6458 68.482 38.4275 68.2646C38.2114 68.047 37.947 67.9491 37.6363 67.9443L37.1971 68.0255L37.1826 68.0352L37.0151 68.1211L36.8355 68.2669C36.6221 68.482 36.5006 68.7448 36.5055 69.0506V71.0508L36.4983 71.8751L29.6017 71.8799L22.7803 71.8751V69.0506C22.7828 68.7448 22.6711 68.482 22.4504 68.2669C22.2343 68.0543 21.9698 67.9491 21.6641 67.9491C21.3511 67.9491 21.0865 68.0543 20.873 68.2646C20.6546 68.4797 20.5453 68.7401 20.543 69.0436V76.8979C20.5453 77.2038 20.6521 77.4619 20.8657 77.6746C21.0793 77.8896 21.3414 77.9923 21.6494 77.9996C21.9601 77.9996 22.2271 77.892 22.4382 77.6818C22.6614 77.4667 22.7803 77.2063 22.7803 76.9028V74.0759H29.6454H36.4983L36.4934 76.8621L36.5929 77.3161L36.6244 77.3759L36.6875 77.4833L36.8502 77.6818C37.0636 77.892 37.3257 77.9996 37.6388 77.9996C37.947 77.9923 38.2114 77.8896 38.4225 77.6746C38.6386 77.4619 38.7477 77.2038 38.7502 76.8979L38.7477 69.4425L38.7502 69.0436Z" fill="#4D4748"/>
<path fill-rule="evenodd" clip-rule="evenodd" d="M69.7315 20.5422C67.9116 20.0667 66.1376 21.4382 66.1376 23.2901V28.1672C66.1376 29.3047 66.8705 30.2987 67.9479 30.6906C71.7093 32.0646 74.398 35.6274 74.398 39.8091C74.398 45.1807 69.979 49.5321 64.5239 49.5321L64.4438 49.5298C59.03 49.4891 54.6522 45.1521 54.6522 39.8091C54.6522 37.9596 55.1788 36.2344 56.0937 34.7576C57.2391 32.9034 59.0033 31.4576 61.1023 30.6906C62.1845 30.2987 62.9126 29.3047 62.9126 28.1672V23.2901C62.9126 21.4382 61.1315 20.0667 59.3187 20.5422C50.6556 22.8051 44.2734 30.5687 44.2734 39.8091C44.2734 40.1269 44.2856 40.4424 44.2953 40.7529C44.7952 51.3004 53.616 59.7093 64.4438 59.7522H64.5239C75.7083 59.7522 84.7768 50.8249 84.7768 39.8091C84.7768 30.5687 78.3946 22.8051 69.7315 20.5422Z" fill="#4FB0E1"/>
<path fill-rule="evenodd" clip-rule="evenodd" d="M89.3683 7.94835L87.6672 7.96508C86.6577 7.97225 85.7938 8.3259 85.095 9.03321C84.3937 9.73334 84.0491 10.5888 84.0588 11.5828C84.066 12.5769 84.4252 13.4252 85.1411 14.1158C85.8521 14.8112 86.7207 15.148 87.7351 15.1409L89.4266 15.1265C90.4384 15.1194 91.3023 14.7657 92.0012 14.0584C92.7049 13.3559 93.0545 12.5028 93.0471 11.5088C93.035 10.5099 92.6734 9.65926 91.9575 8.97825C91.244 8.27811 90.3778 7.94119 89.3683 7.94835Z" fill="#4D4748"/>
<path fill-rule="evenodd" clip-rule="evenodd" d="M102.879 8.96726C102.166 8.27429 101.302 7.93497 100.293 7.94453L98.5964 7.95888C97.582 7.97082 96.7182 8.31968 96.0217 9.027C95.3156 9.72952 94.971 10.5826 94.9807 11.5814C94.9928 12.5731 95.3471 13.4214 96.0606 14.1119C96.7788 14.8049 97.6379 15.1467 98.6595 15.1442L100.356 15.1227C101.37 15.1156 102.222 14.7596 102.93 14.0546C103.627 13.3521 103.974 12.4966 103.964 11.5026C103.957 10.5061 103.593 9.66022 102.879 8.96726Z" fill="#4D4748"/>
<path fill-rule="evenodd" clip-rule="evenodd" d="M45.4581 52.9662V52.8682H31.9343V20.4492H15.7219C6.09285 20.5281 0.0140715 27.2022 0.130551 40.8799C0.256738 55.1431 9.49746 59.9054 16.0665 59.8481L53.2502 59.8671C50.1319 58.1992 47.465 55.8288 45.4581 52.9662ZM16.2557 52.8825C10.1235 52.9351 7.75755 45.8501 7.7163 40.8178C7.67505 35.6133 9.21597 27.0492 16.0276 26.9823L24.6665 26.9107L24.686 52.8682L16.2557 52.8825Z" fill="#4D4748"/>
<path fill-rule="evenodd" clip-rule="evenodd" d="M103.997 24.0247C103.987 23.0235 103.621 22.1752 102.903 21.4823C102.184 20.7845 101.466 20.4404 100.444 20.4474C99.4324 20.4572 98.5734 20.8155 97.8624 21.5229C97.1538 22.2253 97.0058 23.0856 97.0179 24.0844L97.0665 32.2112V32.2161L97.0058 42.797C97.064 49.0885 93.8803 52.8044 87.0613 52.864L83.4117 52.833C81.4533 55.7339 78.7985 58.1354 75.707 59.8511H87.3938L89.0439 59.7269C98.491 58.8595 104.062 52.6897 103.98 43.0669L103.997 32.1515L103.968 28.8157L103.997 24.0247Z" fill="#4D4748"/>
<path fill-rule="evenodd" clip-rule="evenodd" d="M97.4185 1.0239C96.705 0.33093 95.8411 -0.00838521 94.8316 0.00117295L93.133 0.0155101C92.1211 0.0250683 91.2571 0.37633 90.5583 1.08125C89.8521 1.78617 89.51 2.63923 89.5197 3.63805C89.5294 4.62732 89.8862 5.478 90.5995 6.16619C91.3178 6.86155 92.1768 7.20325 93.1985 7.20088L94.8947 7.17936C95.9067 7.17219 96.7632 6.81615 97.467 6.11123C98.1683 5.40871 98.5178 4.55325 98.5056 3.5592C98.4959 2.56276 98.1368 1.71686 97.4185 1.0239Z" fill="#4D4748"/>
<path fill-rule="evenodd" clip-rule="evenodd" d="M59.8643 7.94835L58.1632 7.96508C57.1562 7.97225 56.2922 8.3259 55.5933 9.03321C54.8897 9.73334 54.5498 10.5888 54.5547 11.5828C54.562 12.5769 54.9212 13.4252 55.6371 14.1158C56.3504 14.8112 57.2167 15.148 58.2311 15.1409L59.9226 15.1265C60.9369 15.1194 61.8008 14.7657 62.4996 14.0584C63.2009 13.3559 63.5528 12.5028 63.5431 11.5088C63.5334 10.5099 63.1694 9.65926 62.4535 8.97825C61.74 8.27811 60.8762 7.94119 59.8643 7.94835Z" fill="#4D4748"/>
<path fill-rule="evenodd" clip-rule="evenodd" d="M73.3857 8.96726C72.6675 8.27429 71.8084 7.93497 70.7965 7.94453L69.0979 7.95888C68.0835 7.97082 67.2269 8.31968 66.5255 9.027C65.817 9.72952 65.4773 10.5826 65.4845 11.5814C65.4943 12.5731 65.8534 13.4214 66.5644 14.1119C67.2851 14.8049 68.1442 15.1467 69.1634 15.1442L70.8621 15.1227C71.8764 15.1156 72.7281 14.7596 73.4368 14.0546C74.1332 13.3521 74.4802 12.4966 74.4705 11.5026C74.4631 10.5061 74.0992 9.66022 73.3857 8.96726Z" fill="#4D4748"/>
<path fill-rule="evenodd" clip-rule="evenodd" d="M17.1261 7.94835L15.4251 7.96508C14.4156 7.97225 13.5541 8.3259 12.8528 9.03321C12.1515 9.73334 11.8069 10.5888 11.8166 11.5828C11.8239 12.5769 12.183 13.4252 12.8989 14.1158C13.6099 14.8112 14.4787 15.148 15.493 15.1409L17.1868 15.1265C18.1964 15.1194 19.0627 14.7657 19.759 14.0584C20.4628 13.3559 20.8122 12.5028 20.8049 11.5088C20.7952 10.5099 20.4313 9.65926 19.7178 8.97825C19.002 8.27811 18.1381 7.94119 17.1261 7.94835Z" fill="#4D4748"/>
<path fill-rule="evenodd" clip-rule="evenodd" d="M30.6489 8.96726C29.9354 8.27429 29.0716 7.93497 28.0621 7.94453L26.3634 7.95888C25.3516 7.97082 24.4876 8.31968 23.7912 9.027C23.0851 9.72952 22.7405 10.5826 22.7502 11.5814C22.7599 12.5731 23.1166 13.4214 23.83 14.1119C24.5483 14.8049 25.4073 15.1467 26.429 15.1442L28.1252 15.1227C29.1372 15.1156 29.9913 14.7596 30.6975 14.0546C31.3963 13.3521 31.7434 12.4966 31.7337 11.5026C31.7264 10.5061 31.3624 9.66022 30.6489 8.96726Z" fill="#4D4748"/>
</svg>
