<svg width="24" height="20" viewBox="0 0 24 20" fill="none" xmlns="http://www.w3.org/2000/svg">
<path d="M21.5156 5C21.5469 5.22436 21.5625 5.43269 21.5625 5.625C21.5625 7.90064 21.0156 10.1282 19.9219 12.3077C18.8594 14.4872 17.2812 16.2981 15.1875 17.7404C13.125 19.1827 10.5781 19.9359 7.54688 20C4.73438 19.9679 2.21875 19.2147 0 17.7404C0.375 17.7724 0.765625 17.7885 1.17188 17.7885C3.51562 17.7564 5.5625 17.0353 7.3125 15.625C6.1875 15.5929 5.21875 15.2564 4.40625 14.6154C3.59375 13.9744 3.03125 13.1571 2.71875 12.1635C3 12.1955 3.29688 12.2115 3.60938 12.2115C4.07812 12.2115 4.51562 12.1635 4.92188 12.0673C3.76562 11.8109 2.82812 11.234 2.10938 10.3365C1.39062 9.4391 1.01562 8.36539 0.984375 7.11538V7.01923C1.64062 7.40385 2.375 7.6282 3.1875 7.69231C1.8125 6.69872 1.07812 5.28846 0.984375 3.46154C1.01562 2.53205 1.25 1.68269 1.6875 0.913462C2.90625 2.45192 4.39062 3.6859 6.14062 4.61538C7.85938 5.54487 9.75 6.07372 11.8125 6.20192C11.75 5.81731 11.7188 5.43269 11.7188 5.04808C11.75 3.63782 12.2188 2.45192 13.125 1.49038C14.0625 0.528846 15.2188 0.0320513 16.5938 0C18.0625 0.0320513 19.2656 0.560897 20.2031 1.58654C21.3281 1.36218 22.375 0.961538 23.3438 0.384615C22.9375 1.57051 22.2188 2.5 21.1875 3.17308C22.1562 3.04487 23.0938 2.77244 24 2.35577C23.3125 3.38141 22.4844 4.26282 21.5156 5Z" fill="white"/>
</svg>
