<svg width="24" height="24" viewBox="0 0 24 24" fill="none" xmlns="http://www.w3.org/2000/svg">
<path fill-rule="evenodd" clip-rule="evenodd" d="M20.4107 3.48214C18.0536 1.19643 15.25 0.0357143 12 0C9.78571 0.0357143 7.78571 0.571429 6 1.60714C4.21429 2.67857 2.78571 4.10714 1.71429 5.89286C0.678571 7.67857 0.142857 9.67857 0.107143 11.8929C0.107143 14.0357 0.625 16.0179 1.66071 17.8393L0 24L6.32143 22.3393C8.07143 23.3036 9.96429 23.7857 12 23.7857C14.2143 23.75 16.2143 23.2143 18 22.1786C19.8214 21.1071 21.2679 19.6786 22.3393 17.8929C23.4107 16.1071 23.9643 14.1071 24 11.8929C24 10.2857 23.6786 8.76786 23.0357 7.33929C22.4286 5.91071 21.5536 4.625 20.4107 3.48214ZM12.0006 21.804C10.1791 21.7683 8.50056 21.304 6.96484 20.4111L6.58984 20.1968L2.83984 21.1611L3.8577 17.5183L3.64342 17.1433C2.64342 15.5361 2.12556 13.7861 2.08984 11.8933C2.16127 9.10756 3.14341 6.78613 5.03627 4.92899C6.89341 3.03613 9.21484 2.07185 12.0006 2.03613C14.7148 2.03613 17.0363 3.00042 18.9648 4.92899C20.9291 6.85756 21.947 9.17899 22.0184 11.8933C21.9113 14.679 20.9113 17.0183 19.0184 18.9111C17.1256 20.7683 14.7863 21.7326 12.0006 21.804ZM16.3917 13.8751C16.8917 14.1251 17.231 14.3036 17.4096 14.4108C17.4453 14.4108 17.4989 14.4286 17.5703 14.4643C17.7846 14.5358 17.9275 14.6251 17.9989 14.7322C18.106 14.9108 18.0346 15.3929 17.7846 16.1786C17.6417 16.5358 17.356 16.8393 16.9275 17.0893C16.4989 17.3393 16.1239 17.5001 15.8025 17.5715C15.3739 17.6429 14.8917 17.6429 14.356 17.5715C13.856 17.4643 13.1417 17.2143 12.2132 16.8215C10.8203 16.1429 9.69531 15.3215 8.83817 14.3572C7.94531 13.3929 7.4096 12.7501 7.23103 12.4286C7.19531 12.3929 7.17746 12.3572 7.17746 12.3215H7.12388C7.01674 12.1786 6.80246 11.8215 6.48103 11.2501C6.1596 10.6429 5.98103 9.9822 5.94531 9.26791C5.98103 8.58934 6.10603 8.05363 6.32031 7.66077C6.5346 7.26791 6.73103 7.00006 6.9096 6.8572C6.94531 6.82148 6.96317 6.78577 6.96317 6.75006C7.2846 6.50006 7.55246 6.39291 7.76674 6.42863H8.35603H8.4096C8.58817 6.32148 8.7846 6.4822 8.99888 6.91077C9.07031 7.08934 9.17745 7.32148 9.32031 7.6072C9.46317 7.96434 9.58817 8.28577 9.69531 8.57148C9.80245 8.89291 9.87388 9.07148 9.9096 9.1072C10.0167 9.28577 10.0346 9.46434 9.96317 9.64291C9.67745 10.1429 9.44531 10.4643 9.26674 10.6072C9.01674 10.8215 8.96317 11.0358 9.10603 11.2501C9.64174 12.2143 10.231 12.9465 10.8739 13.4465C11.5167 13.9465 12.2667 14.3929 13.1239 14.7858C13.4096 14.9643 13.6239 14.9465 13.7667 14.7322C13.8739 14.6251 14.0346 14.4465 14.2489 14.1965C14.4275 13.9465 14.5882 13.7322 14.731 13.5536C14.9096 13.3036 15.1239 13.2679 15.3739 13.4465C15.5525 13.5179 15.8917 13.6608 16.3917 13.8751Z" fill="white"/>
</svg>
